<svg width="80" height="80" viewBox="0 0 80 80" fill="none" xmlns="http://www.w3.org/2000/svg">
<circle cx="40" cy="40" r="40" fill="#8935A7"/>
<path d="M31.0114 55V52.4432L40.6136 41.9318C41.7405 40.7008 42.6686 39.6307 43.3977 38.7216C44.1269 37.803 44.6667 36.9413 45.017 36.1364C45.3769 35.322 45.5568 34.4697 45.5568 33.5795C45.5568 32.5568 45.3106 31.6714 44.8182 30.9233C44.3352 30.1752 43.6723 29.5975 42.8295 29.1903C41.9867 28.7831 41.0398 28.5795 39.9886 28.5795C38.8712 28.5795 37.8958 28.8116 37.0625 29.2756C36.2386 29.7301 35.5994 30.3693 35.1449 31.1932C34.6998 32.017 34.4773 32.983 34.4773 34.0909H31.125C31.125 32.3864 31.518 30.8902 32.304 29.6023C33.09 28.3144 34.16 27.3106 35.5142 26.5909C36.8778 25.8712 38.4072 25.5114 40.1023 25.5114C41.8068 25.5114 43.3172 25.8712 44.6335 26.5909C45.9498 27.3106 46.982 28.2812 47.7301 29.5028C48.4782 30.7244 48.8523 32.0833 48.8523 33.5795C48.8523 34.6496 48.6581 35.696 48.2699 36.7188C47.8911 37.732 47.2282 38.8636 46.2812 40.1136C45.3438 41.3542 44.0417 42.8693 42.375 44.6591L35.8409 51.6477V51.875H49.3636V55H31.0114Z" fill="#FEFFFB"/>
</svg>
