<svg width="80" height="80" viewBox="0 0 80 80" fill="none" xmlns="http://www.w3.org/2000/svg">
<circle cx="40" cy="40" r="40" fill="#8935A7"/>
<path d="M39.8409 55.3977C37.9659 55.3977 36.2945 55.0758 34.8267 54.4318C33.3684 53.7879 32.2083 52.893 31.3466 51.7472C30.4943 50.5919 30.0303 49.2519 29.9545 47.7273H33.5341C33.6098 48.6648 33.9318 49.4744 34.5 50.1562C35.0682 50.8286 35.8116 51.3494 36.7301 51.7188C37.6487 52.0881 38.6667 52.2727 39.7841 52.2727C41.0341 52.2727 42.142 52.0549 43.108 51.6193C44.0739 51.1837 44.8314 50.5777 45.3807 49.8011C45.9299 49.0246 46.2045 48.125 46.2045 47.1023C46.2045 46.0322 45.9394 45.09 45.4091 44.2756C44.8788 43.4517 44.1023 42.8078 43.0795 42.3438C42.0568 41.8797 40.8068 41.6477 39.3295 41.6477H37V38.5227H39.3295C40.4848 38.5227 41.4981 38.3144 42.3693 37.8977C43.25 37.4811 43.9366 36.8939 44.429 36.1364C44.9309 35.3788 45.1818 34.4886 45.1818 33.4659C45.1818 32.4811 44.964 31.6241 44.5284 30.8949C44.0928 30.1657 43.4773 29.5975 42.6818 29.1903C41.8958 28.7831 40.9678 28.5795 39.8977 28.5795C38.8939 28.5795 37.947 28.7642 37.0568 29.1335C36.1761 29.4934 35.4564 30.0189 34.8977 30.7102C34.339 31.392 34.036 32.2159 33.9886 33.1818H30.5795C30.6364 31.6572 31.0956 30.322 31.9574 29.1761C32.8191 28.0208 33.946 27.1212 35.3381 26.4773C36.7396 25.8333 38.2784 25.5114 39.9545 25.5114C41.7538 25.5114 43.2973 25.8759 44.5852 26.6051C45.8731 27.3248 46.8627 28.2765 47.554 29.4602C48.2453 30.6439 48.5909 31.9223 48.5909 33.2955C48.5909 34.9337 48.16 36.3305 47.2983 37.4858C46.446 38.6411 45.286 39.4413 43.8182 39.8864V40.1136C45.6553 40.4167 47.09 41.1979 48.1222 42.4574C49.1544 43.7074 49.6705 45.2557 49.6705 47.1023C49.6705 48.6837 49.2396 50.1042 48.3778 51.3636C47.5256 52.6136 46.3608 53.5985 44.8835 54.3182C43.4063 55.0379 41.7254 55.3977 39.8409 55.3977Z" fill="#FEFFFB"/>
</svg>
