<svg width="234" height="107" viewBox="0 0 234 107" fill="none" xmlns="http://www.w3.org/2000/svg">
<ellipse cx="5.31815" cy="3.96337" rx="5.31815" ry="3.96337" fill="#E1DFEC"/>
<ellipse cx="5.31815" cy="23.7837" rx="5.31815" ry="3.96337" fill="#E1DFEC"/>
<ellipse cx="5.31815" cy="43.5962" rx="5.31815" ry="3.96337" fill="#E1DFEC"/>
<ellipse cx="5.31815" cy="63.4243" rx="5.31815" ry="3.96337" fill="#E1DFEC"/>
<ellipse cx="5.31815" cy="83.229" rx="5.31815" ry="3.96337" fill="#E1DFEC"/>
<ellipse cx="5.31815" cy="103.034" rx="5.31815" ry="3.96337" fill="#E1DFEC"/>
<ellipse cx="37.2205" cy="3.96337" rx="5.31815" ry="3.96337" fill="#E1DFEC"/>
<ellipse cx="37.2205" cy="23.7837" rx="5.31815" ry="3.96337" fill="#E1DFEC"/>
<ellipse cx="37.2205" cy="43.5962" rx="5.31815" ry="3.96337" fill="#E1DFEC"/>
<ellipse cx="37.2205" cy="63.4243" rx="5.31815" ry="3.96337" fill="#E1DFEC"/>
<ellipse cx="37.2205" cy="83.229" rx="5.31815" ry="3.96337" fill="#E1DFEC"/>
<ellipse cx="37.2205" cy="103.034" rx="5.31815" ry="3.96337" fill="#E1DFEC"/>
<ellipse cx="69.1424" cy="3.96337" rx="5.31815" ry="3.96337" fill="#E1DFEC"/>
<ellipse cx="69.1424" cy="23.7837" rx="5.31815" ry="3.96337" fill="#E1DFEC"/>
<ellipse cx="69.1424" cy="43.5962" rx="5.31815" ry="3.96337" fill="#E1DFEC"/>
<ellipse cx="69.1424" cy="63.4243" rx="5.31815" ry="3.96337" fill="#E1DFEC"/>
<ellipse cx="69.1424" cy="83.229" rx="5.31815" ry="3.96337" fill="#E1DFEC"/>
<ellipse cx="69.1424" cy="103.034" rx="5.31815" ry="3.96337" fill="#E1DFEC"/>
<ellipse cx="101.045" cy="3.96337" rx="5.31815" ry="3.96337" fill="#E1DFEC"/>
<ellipse cx="101.045" cy="23.7837" rx="5.31815" ry="3.96337" fill="#E1DFEC"/>
<ellipse cx="101.045" cy="43.5962" rx="5.31815" ry="3.96337" fill="#E1DFEC"/>
<ellipse cx="101.045" cy="63.4243" rx="5.31815" ry="3.96337" fill="#E1DFEC"/>
<ellipse cx="101.045" cy="83.229" rx="5.31815" ry="3.96337" fill="#E1DFEC"/>
<ellipse cx="101.045" cy="103.034" rx="5.31815" ry="3.96337" fill="#E1DFEC"/>
<ellipse cx="132.955" cy="3.96337" rx="5.31815" ry="3.96337" fill="#E1DFEC"/>
<ellipse cx="132.955" cy="23.7837" rx="5.31815" ry="3.96337" fill="#E1DFEC"/>
<ellipse cx="132.955" cy="43.5962" rx="5.31815" ry="3.96337" fill="#E1DFEC"/>
<ellipse cx="132.955" cy="63.4243" rx="5.31815" ry="3.96337" fill="#E1DFEC"/>
<ellipse cx="132.955" cy="83.229" rx="5.31815" ry="3.96337" fill="#E1DFEC"/>
<ellipse cx="132.955" cy="103.034" rx="5.31815" ry="3.96337" fill="#E1DFEC"/>
<ellipse cx="164.865" cy="3.96337" rx="5.31815" ry="3.96337" fill="#E1DFEC"/>
<ellipse cx="164.865" cy="23.7837" rx="5.31815" ry="3.96337" fill="#E1DFEC"/>
<ellipse cx="164.865" cy="43.5962" rx="5.31815" ry="3.96337" fill="#E1DFEC"/>
<ellipse cx="164.865" cy="63.4243" rx="5.31815" ry="3.96337" fill="#E1DFEC"/>
<ellipse cx="164.865" cy="83.229" rx="5.31815" ry="3.96337" fill="#E1DFEC"/>
<ellipse cx="164.865" cy="103.034" rx="5.31815" ry="3.96337" fill="#E1DFEC"/>
<ellipse cx="196.767" cy="3.96337" rx="5.31815" ry="3.96337" fill="#E1DFEC"/>
<ellipse cx="196.767" cy="23.7837" rx="5.31815" ry="3.96337" fill="#E1DFEC"/>
<ellipse cx="196.767" cy="43.5962" rx="5.31815" ry="3.96337" fill="#E1DFEC"/>
<ellipse cx="196.767" cy="63.4243" rx="5.31815" ry="3.96337" fill="#E1DFEC"/>
<ellipse cx="196.767" cy="83.229" rx="5.31815" ry="3.96337" fill="#E1DFEC"/>
<ellipse cx="196.767" cy="103.034" rx="5.31815" ry="3.96337" fill="#E1DFEC"/>
<ellipse cx="228.681" cy="3.96337" rx="5.31815" ry="3.96337" fill="#E1DFEC"/>
<ellipse cx="228.681" cy="23.7837" rx="5.31815" ry="3.96337" fill="#E1DFEC"/>
<ellipse cx="228.681" cy="43.5962" rx="5.31815" ry="3.96337" fill="#E1DFEC"/>
<ellipse cx="228.681" cy="63.4243" rx="5.31815" ry="3.96337" fill="#E1DFEC"/>
<ellipse cx="228.681" cy="83.229" rx="5.31815" ry="3.96337" fill="#E1DFEC"/>
<ellipse cx="228.681" cy="103.034" rx="5.31815" ry="3.96337" fill="#E1DFEC"/>
</svg>
